<svg width="272" height="348" viewBox="0 0 272 348" fill="none" xmlns="http://www.w3.org/2000/svg">
<path d="M253.573 309.893C254.189 310.736 254.782 311.643 254.956 312.674C255.131 313.704 254.786 314.889 253.885 315.419C252.978 315.953 251.776 315.677 250.925 315.055C250.074 314.435 249.485 313.531 248.861 312.683C246.843 309.937 244.281 307.595 241.368 305.828C240.339 305.205 239.258 304.645 238.372 303.832C237.487 303.019 236.804 301.886 236.858 300.685C237.07 295.915 243.439 300.622 245.177 301.802C248.409 303.994 251.268 306.74 253.573 309.893Z" fill="url(#paint0_radial_39_4)"/>
<path d="M241.223 295.452L235.389 247.476C229.556 244.177 213.644 243.481 203.999 248.038L201.806 295.452C201.806 295.452 201.546 313.749 221.559 314.809C240.462 315.81 241.758 299.863 241.223 295.452Z" fill="url(#paint1_radial_39_4)"/>
<path opacity="0.5" d="M217.331 255.576C205.193 253.719 204.038 249.671 203.981 248.417L203.998 248.038C213.644 243.483 229.556 244.177 235.388 247.476C235.388 247.476 231.794 257.787 217.331 255.576Z" fill="url(#paint2_radial_39_4)"/>
<path d="M202.539 279.612L202.645 277.311C224.903 280.538 235.086 277.22 238.78 275.355L239.074 277.775C235.92 279.216 229.985 280.972 219.764 280.972C215.004 280.972 209.304 280.584 202.539 279.612Z" fill="url(#paint3_radial_39_4)"/>
<path d="M220.817 294.248C221.105 299.005 223.891 302.708 227.04 302.517C230.189 302.327 232.507 298.315 232.221 293.558C231.933 288.8 229.147 285.097 225.998 285.289C222.848 285.48 220.529 289.491 220.817 294.248Z" fill="url(#paint4_radial_39_4)"/>
<path d="M222.991 290.05C222.457 292.139 223.069 294.098 224.358 294.427C225.646 294.756 227.124 293.33 227.657 291.241C228.19 289.152 227.579 287.193 226.29 286.863C225.001 286.535 223.525 287.961 222.991 290.05Z" fill="url(#paint5_radial_39_4)"/>
<path d="M216.49 202.758C214.893 200.578 213.091 198.454 210.721 197.157C208.35 195.858 205.294 195.525 202.982 196.927C200.447 198.465 199.387 201.738 199.692 204.688C199.997 207.638 201.425 210.341 202.912 212.907C206.078 218.37 209.721 223.804 210.706 230.043C211.326 233.974 210.843 237.999 211.214 241.961C211.586 245.923 213.062 250.123 216.448 252.213C219.983 254.395 225.576 252.628 227.344 248.872C229.225 244.874 228.454 238.439 228.11 234.206C227.189 222.931 223.186 211.892 216.49 202.758Z" fill="url(#paint6_radial_39_4)"/>
<path d="M193.993 215.857C206.431 215.857 216.515 205.774 216.515 193.335C216.515 180.896 206.431 170.813 193.993 170.813C181.554 170.813 171.471 180.896 171.471 193.335C171.471 205.774 181.554 215.857 193.993 215.857Z" fill="url(#paint7_radial_39_4)"/>
<path d="M227.778 315.616C228.391 319.724 228.908 323.847 229.331 327.978C229.445 329.104 229.544 330.289 229.084 331.323C228.578 332.465 227.449 333.235 226.258 333.606C225.066 333.977 223.798 334.003 222.55 334.025C220.593 334.062 218.349 333.973 217.106 332.461C216.197 331.354 216.113 329.806 216.072 328.374C215.966 324.755 215.862 321.134 215.756 317.514C215.704 315.728 215.655 313.917 216.073 312.178C216.491 310.44 217.44 308.756 218.972 307.838C224.455 304.553 227.183 311.632 227.778 315.616Z" fill="url(#paint8_radial_39_4)"/>
<path d="M234.941 326.537C235.289 327.49 235.675 328.494 236.476 329.116C237.829 330.165 239.766 329.728 241.408 329.244C242.656 328.875 243.923 328.497 245.021 327.797C246.118 327.098 247.044 326.019 247.255 324.735C247.444 323.58 247.043 322.416 246.616 321.327C244.864 316.867 242.525 312.638 239.679 308.783C238.549 307.253 237.252 305.717 235.467 305.063C233.803 304.453 231.892 304.862 230.479 305.881C228.342 307.423 228.457 308.795 229.279 311.04C231.167 316.205 233.053 321.371 234.941 326.537Z" fill="url(#paint9_radial_39_4)"/>
<path d="M234.941 326.537C233.053 321.371 231.167 316.203 229.276 311.038C228.588 309.158 228.415 307.89 229.627 306.623C232.231 313.343 234.836 320.064 237.44 326.785C237.842 327.822 238.28 328.888 238.969 329.741C238.062 329.803 237.188 329.667 236.476 329.116C235.675 328.494 235.289 327.49 234.941 326.537Z" fill="url(#paint10_radial_39_4)"/>
<path d="M206.185 322.35C205.304 324.26 204.5 326.273 203.023 327.771C201.547 329.27 199.165 330.122 197.296 329.156C195.66 328.312 194.892 326.315 194.97 324.476C195.048 322.638 195.813 320.907 196.565 319.228C197.729 316.628 198.894 314.026 200.257 311.526C201.289 309.632 202.472 307.755 204.192 306.453C205.911 305.152 208.276 304.518 210.272 305.333C213.019 306.453 213.722 309.961 212.225 312.27C210.069 315.596 207.856 318.727 206.185 322.35Z" fill="url(#paint11_radial_39_4)"/>
<path d="M201.146 326.068C202.879 323.753 203.732 320.902 205.233 318.43C206.506 316.334 208.225 314.539 209.546 312.472C210.792 310.522 211.667 308.177 211.271 305.919C213.163 307.39 213.522 310.275 212.226 312.27C210.07 315.595 207.856 318.726 206.186 322.35C205.305 324.26 204.501 326.273 203.025 327.771C201.549 329.27 199.167 330.122 197.297 329.156C197.233 329.124 197.181 329.078 197.12 329.043C198.686 328.537 200.145 327.405 201.146 326.068Z" fill="url(#paint12_radial_39_4)"/>
<path d="M18.4276 309.893C17.8113 310.736 17.2184 311.643 17.0438 312.674C16.8692 313.704 17.2145 314.889 18.1149 315.419C19.0218 315.953 20.2245 315.677 21.0753 315.055C21.9261 314.435 22.5151 313.531 23.1392 312.683C25.1575 309.937 27.7191 307.595 30.6326 305.828C31.6607 305.205 32.7422 304.645 33.6269 303.832C34.5116 303.019 35.1944 301.886 35.1409 300.685C34.9286 295.915 28.5596 300.622 26.8214 301.802C23.5913 303.994 20.7326 306.74 18.4276 309.893Z" fill="url(#paint13_radial_39_4)"/>
<path d="M30.7775 295.452L36.6109 247.476C42.4443 244.177 58.3563 243.481 68.0022 248.038L70.1952 295.452C70.1952 295.452 70.4558 313.749 50.442 314.809C31.5384 315.81 30.2419 299.863 30.7775 295.452Z" fill="url(#paint14_radial_39_4)"/>
<path opacity="0.5" d="M54.6688 255.576C66.8074 253.719 67.9618 249.671 68.0191 248.417L68.0022 248.038C58.3562 243.483 42.4443 244.177 36.6108 247.476C36.6108 247.476 40.2058 257.787 54.6688 255.576Z" fill="url(#paint15_radial_39_4)"/>
<path d="M69.4613 279.612L69.3545 277.311C47.097 280.538 36.9142 277.22 33.2203 275.355L32.9258 277.775C36.0803 279.216 42.0154 280.972 52.2347 280.972C56.9958 280.972 62.6962 280.584 69.4613 279.612Z" fill="url(#paint16_radial_39_4)"/>
<path d="M51.1837 294.248C50.8958 299.005 48.11 302.708 44.9607 302.517C41.8114 302.327 39.4921 298.315 39.78 293.558C40.068 288.8 42.8538 285.097 46.0031 285.289C49.1524 285.48 51.4717 289.491 51.1837 294.248Z" fill="url(#paint17_radial_39_4)"/>
<path d="M49.0099 290.05C49.5428 292.139 48.9317 294.098 47.643 294.427C46.3544 294.756 44.8781 293.33 44.3439 291.241C43.811 289.152 44.4221 287.193 45.7108 286.863C46.9994 286.535 48.477 287.961 49.0099 290.05Z" fill="url(#paint18_radial_39_4)"/>
<path d="M55.5101 202.758C57.1075 200.578 58.9095 198.454 61.2796 197.157C63.6498 195.858 66.7079 195.525 69.0181 196.927C71.5537 198.465 72.6129 201.738 72.308 204.688C72.0018 207.638 70.5752 210.341 69.0885 212.907C65.9222 218.37 62.2791 223.804 61.294 230.043C60.6738 233.974 61.1572 237.999 60.7859 241.961C60.4145 245.923 58.9382 250.123 55.5517 252.213C52.0168 254.395 46.4244 252.628 44.6576 248.872C42.7761 244.874 43.5474 238.439 43.8914 234.206C44.8113 222.931 48.8141 211.892 55.5101 202.758Z" fill="url(#paint19_radial_39_4)"/>
<path d="M78.0078 215.857C90.4464 215.857 100.53 205.774 100.53 193.335C100.53 180.896 90.4464 170.813 78.0078 170.813C65.5692 170.813 55.4858 180.896 55.4858 193.335C55.4858 205.774 65.5692 215.857 78.0078 215.857Z" fill="url(#paint20_radial_39_4)"/>
<path d="M44.2229 315.616C43.6092 319.724 43.092 323.847 42.6698 327.978C42.5551 329.104 42.4561 330.289 42.916 331.323C43.4229 332.465 44.55 333.235 45.7422 333.606C46.9344 333.977 48.2022 334.003 49.4505 334.025C51.4075 334.062 53.6512 333.973 54.8943 332.461C55.8038 331.354 55.8872 329.806 55.9289 328.374C56.0344 324.755 56.1387 321.134 56.2442 317.514C56.2963 315.728 56.3459 313.917 55.9276 312.178C55.5093 310.442 54.5607 308.756 53.0284 307.838C47.5455 304.553 44.817 311.632 44.2229 315.616Z" fill="url(#paint21_radial_39_4)"/>
<path d="M37.059 326.537C36.7111 327.49 36.3255 328.494 35.5241 329.116C34.1716 330.165 32.2341 329.728 30.5923 329.244C29.344 328.875 28.0775 328.497 26.9791 327.797C25.882 327.098 24.9569 326.019 24.7458 324.735C24.5569 323.58 24.957 322.416 25.3856 321.327C27.1381 316.867 29.477 312.638 32.3227 308.783C33.4523 307.253 34.7502 305.717 36.5352 305.063C38.1991 304.453 40.1093 304.862 41.523 305.881C43.6599 307.423 43.5452 308.795 42.723 311.04C40.8337 316.205 38.947 321.371 37.059 326.537Z" fill="url(#paint22_radial_39_4)"/>
<path d="M37.0591 326.537C38.9471 321.371 40.8338 316.203 42.7244 311.038C43.4124 309.158 43.5857 307.89 42.3739 306.623C39.7692 313.343 37.1646 320.064 34.56 326.785C34.1574 327.822 33.7209 328.888 33.0303 329.741C33.9371 329.803 34.8114 329.667 35.5228 329.116C36.3255 328.494 36.7112 327.49 37.0591 326.537Z" fill="url(#paint23_radial_39_4)"/>
<path d="M65.8155 322.35C66.6963 324.26 67.5003 326.273 68.9766 327.771C70.4529 329.27 72.8347 330.122 74.7031 329.156C76.3384 328.312 77.1072 326.315 77.029 324.476C76.9508 322.638 76.186 320.907 75.4342 319.228C74.2706 316.628 73.1044 314.026 71.7414 311.526C70.7095 309.632 69.5264 307.755 67.8065 306.453C66.0879 305.152 63.7229 304.518 61.7268 305.333C58.9801 306.453 58.2765 309.961 59.7736 312.27C61.9313 315.596 64.1438 318.727 65.8155 322.35Z" fill="url(#paint24_radial_39_4)"/>
<path d="M70.8542 326.068C69.1212 323.753 68.2677 320.902 66.7667 318.43C65.4937 316.334 63.775 314.539 62.4538 312.472C61.2082 310.522 60.3326 308.177 60.7287 305.919C58.8368 307.39 58.4784 310.275 59.7736 312.27C61.93 315.595 64.1438 318.726 65.8143 322.35C66.6951 324.26 67.499 326.273 68.9752 327.771C70.4515 329.27 72.8334 330.122 74.7019 329.156C74.7644 329.124 74.8178 329.078 74.8791 329.043C73.3142 328.537 71.8548 327.405 70.8542 326.068Z" fill="url(#paint25_radial_39_4)"/>
<path d="M151.73 154.789H136.001H136H120.27L115.604 172.907H136H136.001H156.396L151.73 154.789Z" fill="url(#paint26_radial_39_4)"/>
<path d="M180.09 171.493H136.001H91.9094C86.5972 171.493 82.4758 176.132 83.1039 181.408L91.8247 254.797C92.7577 262.653 99.4211 268.572 107.333 268.572H135.998H136H164.665C172.578 268.572 179.239 262.653 180.173 254.797L188.894 181.408C189.523 176.133 185.402 171.493 180.09 171.493Z" fill="url(#paint27_radial_39_4)"/>
<path d="M102.15 242.52L100.487 229.646H88.837L89.1094 231.938H98.4726L100.135 244.812H113.523V242.52H102.15ZM112.312 217.951H87.4468L87.7191 220.243H112.312V217.951Z" fill="url(#paint28_radial_39_4)"/>
<path d="M158.477 242.52V244.812H171.865L173.528 231.938H182.891L183.163 229.646H171.513L169.851 242.52H158.477ZM159.689 220.243H184.281L184.554 217.951H159.689V220.243Z" fill="url(#paint29_radial_39_4)"/>
<path d="M136 238.594C146.941 238.594 155.811 229.725 155.811 218.783C155.811 207.842 146.941 198.973 136 198.973C125.059 198.973 116.19 207.842 116.19 218.783C116.19 229.725 125.059 238.594 136 238.594Z" fill="url(#paint30_radial_39_4)"/>
<path d="M136 199.958C146.775 199.958 155.522 208.564 155.786 219.276C155.79 219.111 155.811 218.95 155.811 218.783C155.811 207.842 146.942 198.973 136 198.973C125.059 198.973 116.19 207.842 116.19 218.783C116.19 218.95 116.211 219.111 116.215 219.276C116.478 208.566 125.225 199.958 136 199.958Z" fill="url(#paint31_radial_39_4)"/>
<path d="M136 231.52C143.669 231.52 149.885 225.304 149.885 217.636C149.885 209.967 143.669 203.751 136 203.751C128.332 203.751 122.116 209.967 122.116 217.636C122.116 225.304 128.332 231.52 136 231.52Z" fill="url(#paint32_radial_39_4)"/>
<path d="M136 233.653C143.669 233.653 149.885 227.437 149.885 219.769C149.885 212.1 143.669 205.884 136 205.884C128.332 205.884 122.116 212.1 122.116 219.769C122.116 227.437 128.332 233.653 136 233.653Z" fill="url(#paint33_radial_39_4)"/>
<path d="M149.885 218.783C149.885 226.452 143.668 232.668 136 232.668C128.332 232.668 122.116 226.452 122.116 218.783C122.116 211.115 128.332 204.898 136 204.898C143.668 204.899 149.885 211.115 149.885 218.783Z" fill="url(#paint34_radial_39_4)"/>
<path opacity="0.45" d="M138.092 228.241C130.424 228.241 124.207 222.024 124.207 214.356C124.207 213.101 124.388 211.891 124.701 210.735C123.079 213.007 122.116 215.78 122.116 218.785C122.116 226.453 128.332 232.669 136 232.669C142.414 232.669 147.796 228.315 149.392 222.406C146.874 225.933 142.756 228.241 138.092 228.241Z" fill="url(#paint35_radial_39_4)"/>
<path d="M146.3 216.279C145.081 218.954 140.725 219.586 136.571 217.693C132.417 215.8 130.038 212.095 131.257 209.422C132.477 206.748 136.833 206.115 140.987 208.008C145.139 209.901 147.519 213.604 146.3 216.279Z" fill="url(#paint36_radial_39_4)"/>
<path d="M71.043 51.2396L81.8282 18.9346L83.3858 19.3726L75.7323 52.5595L71.043 51.2396Z" fill="url(#paint37_radial_39_4)"/>
<path d="M82.8121 24.1516C86.4438 24.1516 89.3879 21.2075 89.3879 17.5758C89.3879 13.9441 86.4438 11 82.8121 11C79.1804 11 76.2363 13.9441 76.2363 17.5758C76.2363 21.2075 79.1804 24.1516 82.8121 24.1516Z" fill="url(#paint38_radial_39_4)"/>
<path d="M82.7493 126.695L60.0607 124.277C51.4699 123.363 45.5488 115.231 47.3112 106.774L57.0127 60.2489C58.5046 53.0917 64.8143 47.9614 72.1255 47.9614H93.5436L82.7493 126.695Z" fill="url(#paint39_radial_39_4)"/>
<path d="M62.0865 124.494C61.4601 109.302 62.5319 78.9269 76.9796 47.9629H73.0392C59.1461 78.6235 57.9174 108.489 58.4914 124.025C59.0026 124.135 59.5258 124.221 60.0595 124.277L62.0865 124.494Z" fill="url(#paint40_radial_39_4)"/>
<path d="M82.7492 126.695L85.9003 103.714C84.2829 103.895 82.664 104.076 81.0466 104.255C75.3946 104.886 69.6858 105.517 64.0369 104.867C58.5359 104.235 53.0304 102.257 49.0541 98.4211L47.3126 106.773C45.5487 115.229 51.4712 123.361 60.0621 124.276L82.7492 126.695Z" fill="url(#paint41_radial_39_4)"/>
<path d="M200.955 51.2396L190.17 18.9346L188.612 19.3726L196.266 52.5595L200.955 51.2396Z" fill="url(#paint42_radial_39_4)"/>
<path d="M189.186 24.1516C192.818 24.1516 195.762 21.2075 195.762 17.5758C195.762 13.9441 192.818 11 189.186 11C185.554 11 182.61 13.9441 182.61 17.5758C182.61 21.2075 185.554 24.1516 189.186 24.1516Z" fill="url(#paint43_radial_39_4)"/>
<path d="M189.248 126.695L211.937 124.277C220.526 123.363 226.449 115.231 224.686 106.774L214.985 60.2489C213.493 53.0917 207.183 47.9614 199.872 47.9614H178.454L189.248 126.695Z" fill="url(#paint44_radial_39_4)"/>
<path d="M209.912 124.494C210.538 109.302 209.467 78.9269 195.019 47.9629H198.959C212.852 78.6235 214.081 108.489 213.507 124.025C212.996 124.135 212.473 124.221 211.939 124.277L209.912 124.494Z" fill="url(#paint45_radial_39_4)"/>
<path d="M189.248 126.695L186.099 103.714C187.716 103.895 189.335 104.076 190.952 104.255C196.604 104.886 202.313 105.517 207.964 104.867C213.465 104.235 218.97 102.257 222.946 98.4211L224.688 106.773C226.452 115.229 220.529 123.361 211.938 124.276L189.248 126.695Z" fill="url(#paint46_radial_39_4)"/>
<path d="M136 17.5758C81.5682 17.5758 60.6988 84.1499 69.2687 120.137C77.8386 156.123 136 154.782 136 154.782C136 154.782 194.162 156.123 202.731 120.137C211.299 84.1499 190.43 17.5758 136 17.5758Z" fill="url(#paint47_radial_39_4)"/>
<path d="M116.285 137.747L100.985 149.51C101.916 149.815 102.849 150.104 103.78 150.374L118.521 139.042L121.633 116.154L119.265 115.833L116.285 137.747Z" fill="url(#paint48_radial_39_4)"/>
<path d="M155.714 137.747L171.015 149.51C170.084 149.815 169.151 150.104 168.22 150.374L153.479 139.042L150.367 116.154L152.735 115.833L155.714 137.747Z" fill="url(#paint49_radial_39_4)"/>
<path d="M198.993 66.5377C188.838 63.9262 164.103 71.2734 136 71.2734C107.897 71.2734 83.1609 63.9262 73.0079 66.5377C62.8535 69.1492 52.119 103.672 73.0079 118.468C93.8968 133.264 136 131.523 136 131.523C136 131.523 178.105 133.264 198.993 118.468C219.88 103.672 209.146 69.1492 198.993 66.5377Z" fill="url(#paint50_radial_39_4)"/>
<path d="M140.145 126.81C137.68 126.81 136.209 126.751 136.196 126.751L136.001 126.744L135.804 126.751C135.79 126.751 134.323 126.81 131.855 126.81C122.751 126.81 91.8004 125.928 75.7682 114.57C63.8409 106.123 65.6287 90.7406 66.4599 86.2262C68.1445 77.0883 72.3271 71.6441 74.1957 71.1642C75.2555 70.8907 76.7234 70.7532 78.5591 70.7532C83.2858 70.7532 89.8317 71.6561 97.4105 72.6995C108.253 74.1928 121.745 76.0509 136 76.0509C150.255 76.0509 163.748 74.1928 174.589 72.6995C182.168 71.6546 188.712 70.7532 193.439 70.7532C195.275 70.7532 196.742 70.8922 197.804 71.1642C199.672 71.6441 203.855 77.0883 205.54 86.2262C206.372 90.7392 208.16 106.121 196.231 114.57C180.198 125.928 149.251 126.81 140.145 126.81Z" fill="url(#paint51_radial_39_4)"/>
<path d="M146.693 106.294C147.473 104.393 148.341 102.958 149.364 101.435C150.397 99.9713 151.531 98.5751 152.789 97.2895C155.267 94.6825 158.212 92.4911 161.426 90.772C164.628 89.044 168.12 87.7614 171.727 87.2278C175.301 86.5417 178.98 86.6882 182.461 87.3698C184.243 87.7181 185.406 89.4461 185.056 91.228C184.816 92.4597 183.914 93.3955 182.793 93.7408L182.461 93.8409C179.489 94.7468 176.672 95.3537 173.99 96.3717C171.293 97.294 168.727 98.4406 166.233 99.7575C163.731 101.058 161.324 102.586 158.971 104.279C157.817 105.149 156.636 106.018 155.506 106.957C154.37 107.842 153.197 108.925 152.186 109.716L151.709 110.088C150.294 111.196 148.249 110.946 147.141 109.531C146.395 108.582 146.267 107.339 146.693 106.294Z" fill="url(#paint52_radial_39_4)"/>
<path d="M125.306 106.294C124.526 104.393 123.657 102.958 122.635 101.435C121.602 99.9713 120.467 98.5751 119.212 97.2895C116.733 94.6825 113.788 92.4911 110.574 90.772C107.372 89.044 103.88 87.7614 100.273 87.2278C96.6993 86.5417 93.0205 86.6882 89.539 87.3698C87.7571 87.7181 86.5942 89.4461 86.944 91.228C87.1846 92.4597 88.086 93.3955 89.2086 93.7408L89.5405 93.8409C92.5122 94.7468 95.33 95.3537 98.0117 96.3717C100.708 97.294 103.275 98.4406 105.768 99.7575C108.271 101.058 110.677 102.586 113.03 104.279C114.184 105.149 115.365 106.018 116.495 106.957C117.631 107.842 118.805 108.925 119.815 109.716L120.292 110.088C121.708 111.196 123.753 110.946 124.861 109.531C125.603 108.582 125.732 107.339 125.306 106.294Z" fill="url(#paint53_radial_39_4)"/>
<defs>
<radialGradient id="paint0_radial_39_4" cx="0" cy="0" r="1" gradientUnits="userSpaceOnUse" gradientTransform="translate(263.748 302.888) rotate(180) scale(27.7406 27.7407)">
<stop stop-color="#A115A4"/>
<stop offset="0.0541" stop-color="#9914A1"/>
<stop offset="0.2826" stop-color="#7F1196"/>
<stop offset="0.5152" stop-color="#6B0F8E"/>
<stop offset="0.7522" stop-color="#600D8A"/>
<stop offset="1" stop-color="#5C0D88"/>
</radialGradient>
<radialGradient id="paint1_radial_39_4" cx="0" cy="0" r="1" gradientUnits="userSpaceOnUse" gradientTransform="translate(221.559 241.102) rotate(180) scale(83.6899 83.69)">
<stop stop-color="#FDEEF1"/>
<stop offset="0.3267" stop-color="#FDEAEE"/>
<stop offset="0.6601" stop-color="#FDDEE4"/>
<stop offset="0.9956" stop-color="#FDC9D3"/>
<stop offset="1" stop-color="#FDC9D3"/>
</radialGradient>
<radialGradient id="paint2_radial_39_4" cx="0" cy="0" r="1" gradientUnits="userSpaceOnUse" gradientTransform="translate(212.049 242.236) rotate(180) scale(19.5636 19.5636)">
<stop stop-color="#FDEEF1"/>
<stop offset="0.3267" stop-color="#FDEAEE"/>
<stop offset="0.6601" stop-color="#FDDEE4"/>
<stop offset="0.9956" stop-color="#FDC9D3"/>
<stop offset="1" stop-color="#FDC9D3"/>
</radialGradient>
<radialGradient id="paint3_radial_39_4" cx="0" cy="0" r="1" gradientUnits="userSpaceOnUse" gradientTransform="translate(219.062 240.702) rotate(180) scale(45.1861 45.1861)">
<stop stop-color="#FDEEF1"/>
<stop offset="0.3267" stop-color="#FDEAEE"/>
<stop offset="0.6601" stop-color="#FDDEE4"/>
<stop offset="0.9956" stop-color="#FDC9D3"/>
<stop offset="1" stop-color="#FDC9D3"/>
</radialGradient>
<radialGradient id="paint4_radial_39_4" cx="0" cy="0" r="1" gradientUnits="userSpaceOnUse" gradientTransform="translate(221.104 286.263) rotate(180) scale(17.5966 17.5966)">
<stop stop-color="#FC956F"/>
<stop offset="1" stop-color="#BE2D58"/>
</radialGradient>
<radialGradient id="paint5_radial_39_4" cx="0" cy="0" r="1" gradientUnits="userSpaceOnUse" gradientTransform="translate(223.974 286.73) rotate(-165.671) scale(7.96571 7.96572)">
<stop stop-color="#FC956F"/>
<stop offset="1" stop-color="#BE2D58" stop-opacity="0"/>
</radialGradient>
<radialGradient id="paint6_radial_39_4" cx="0" cy="0" r="1" gradientUnits="userSpaceOnUse" gradientTransform="translate(234.859 203.694) rotate(180) scale(56.0387 56.0387)">
<stop stop-color="#594A81"/>
<stop offset="0.2346" stop-color="#56487D"/>
<stop offset="0.4741" stop-color="#4E4071"/>
<stop offset="0.7158" stop-color="#40345C"/>
<stop offset="0.9577" stop-color="#2C2340"/>
<stop offset="1" stop-color="#281F3A"/>
</radialGradient>
<radialGradient id="paint7_radial_39_4" cx="0" cy="0" r="1" gradientUnits="userSpaceOnUse" gradientTransform="translate(192.179 181.189) rotate(180) scale(34.7015 34.7015)">
<stop stop-color="#A115A4"/>
<stop offset="0.0541" stop-color="#9914A1"/>
<stop offset="0.2826" stop-color="#7F1196"/>
<stop offset="0.5152" stop-color="#6B0F8E"/>
<stop offset="0.7522" stop-color="#600D8A"/>
<stop offset="1" stop-color="#5C0D88"/>
</radialGradient>
<radialGradient id="paint8_radial_39_4" cx="0" cy="0" r="1" gradientUnits="userSpaceOnUse" gradientTransform="translate(222.023 313.221) rotate(180) scale(18.6842 18.6842)">
<stop stop-color="#A115A4"/>
<stop offset="0.0541" stop-color="#9914A1"/>
<stop offset="0.2826" stop-color="#7F1196"/>
<stop offset="0.5152" stop-color="#6B0F8E"/>
<stop offset="0.7522" stop-color="#600D8A"/>
<stop offset="1" stop-color="#5C0D88"/>
</radialGradient>
<radialGradient id="paint9_radial_39_4" cx="0" cy="0" r="1" gradientUnits="userSpaceOnUse" gradientTransform="translate(248.767 328.873) rotate(180) scale(35.0661 35.0661)">
<stop stop-color="#A115A4"/>
<stop offset="0.0541" stop-color="#9914A1"/>
<stop offset="0.2826" stop-color="#7F1196"/>
<stop offset="0.5152" stop-color="#6B0F8E"/>
<stop offset="0.7522" stop-color="#600D8A"/>
<stop offset="1" stop-color="#5C0D88"/>
</radialGradient>
<radialGradient id="paint10_radial_39_4" cx="0" cy="0" r="1" gradientUnits="userSpaceOnUse" gradientTransform="translate(199.978 328.741) rotate(180) scale(25.9753 25.9752)">
<stop stop-color="#A115A4"/>
<stop offset="0.0541" stop-color="#9914A1"/>
<stop offset="0.2826" stop-color="#7F1196"/>
<stop offset="0.5152" stop-color="#6B0F8E"/>
<stop offset="0.7522" stop-color="#600D8A"/>
<stop offset="1" stop-color="#5C0D88"/>
</radialGradient>
<radialGradient id="paint11_radial_39_4" cx="0" cy="0" r="1" gradientUnits="userSpaceOnUse" gradientTransform="translate(203.255 310.636) rotate(180) scale(17.7583 17.7583)">
<stop stop-color="#A115A4"/>
<stop offset="0.0541" stop-color="#9914A1"/>
<stop offset="0.2826" stop-color="#7F1196"/>
<stop offset="0.5152" stop-color="#6B0F8E"/>
<stop offset="0.7522" stop-color="#600D8A"/>
<stop offset="1" stop-color="#5C0D88"/>
</radialGradient>
<radialGradient id="paint12_radial_39_4" cx="0" cy="0" r="1" gradientUnits="userSpaceOnUse" gradientTransform="translate(188.792 294.246) rotate(180) scale(23.257 23.2569)">
<stop stop-color="#A115A4"/>
<stop offset="0.0541" stop-color="#9914A1"/>
<stop offset="0.2826" stop-color="#7F1196"/>
<stop offset="0.5152" stop-color="#6B0F8E"/>
<stop offset="0.7522" stop-color="#600D8A"/>
<stop offset="1" stop-color="#5C0D88"/>
</radialGradient>
<radialGradient id="paint13_radial_39_4" cx="0" cy="0" r="1" gradientUnits="userSpaceOnUse" gradientTransform="translate(8.25154 302.888) scale(27.7408 27.7407)">
<stop stop-color="#A115A4"/>
<stop offset="0.0541" stop-color="#9914A1"/>
<stop offset="0.2826" stop-color="#7F1196"/>
<stop offset="0.5152" stop-color="#6B0F8E"/>
<stop offset="0.7522" stop-color="#600D8A"/>
<stop offset="1" stop-color="#5C0D88"/>
</radialGradient>
<radialGradient id="paint14_radial_39_4" cx="0" cy="0" r="1" gradientUnits="userSpaceOnUse" gradientTransform="translate(50.4409 241.102) scale(83.69 83.69)">
<stop stop-color="#FDEEF1"/>
<stop offset="0.3267" stop-color="#FDEAEE"/>
<stop offset="0.6601" stop-color="#FDDEE4"/>
<stop offset="0.9956" stop-color="#FDC9D3"/>
<stop offset="1" stop-color="#FDC9D3"/>
</radialGradient>
<radialGradient id="paint15_radial_39_4" cx="0" cy="0" r="1" gradientUnits="userSpaceOnUse" gradientTransform="translate(59.9511 242.236) scale(19.5636 19.5636)">
<stop stop-color="#FDEEF1"/>
<stop offset="0.3267" stop-color="#FDEAEE"/>
<stop offset="0.6601" stop-color="#FDDEE4"/>
<stop offset="0.9956" stop-color="#FDC9D3"/>
<stop offset="1" stop-color="#FDC9D3"/>
</radialGradient>
<radialGradient id="paint16_radial_39_4" cx="0" cy="0" r="1" gradientUnits="userSpaceOnUse" gradientTransform="translate(52.9384 240.702) scale(45.186 45.1861)">
<stop stop-color="#FDEEF1"/>
<stop offset="0.3267" stop-color="#FDEAEE"/>
<stop offset="0.6601" stop-color="#FDDEE4"/>
<stop offset="0.9956" stop-color="#FDC9D3"/>
<stop offset="1" stop-color="#FDC9D3"/>
</radialGradient>
<radialGradient id="paint17_radial_39_4" cx="0" cy="0" r="1" gradientUnits="userSpaceOnUse" gradientTransform="translate(50.8967 286.263) scale(17.5966 17.5966)">
<stop stop-color="#FC956F"/>
<stop offset="1" stop-color="#BE2D58"/>
</radialGradient>
<radialGradient id="paint18_radial_39_4" cx="0" cy="0" r="1" gradientUnits="userSpaceOnUse" gradientTransform="translate(48.0266 286.73) rotate(-14.3295) scale(7.96571 7.96572)">
<stop stop-color="#FC956F"/>
<stop offset="1" stop-color="#BE2D58" stop-opacity="0"/>
</radialGradient>
<radialGradient id="paint19_radial_39_4" cx="0" cy="0" r="1" gradientUnits="userSpaceOnUse" gradientTransform="translate(37.1408 203.694) scale(56.0386 56.0387)">
<stop stop-color="#594A81"/>
<stop offset="0.2346" stop-color="#56487D"/>
<stop offset="0.4741" stop-color="#4E4071"/>
<stop offset="0.7158" stop-color="#40345C"/>
<stop offset="0.9577" stop-color="#2C2340"/>
<stop offset="1" stop-color="#281F3A"/>
</radialGradient>
<radialGradient id="paint20_radial_39_4" cx="0" cy="0" r="1" gradientUnits="userSpaceOnUse" gradientTransform="translate(79.8217 181.189) scale(34.7015 34.7015)">
<stop stop-color="#A115A4"/>
<stop offset="0.0541" stop-color="#9914A1"/>
<stop offset="0.2826" stop-color="#7F1196"/>
<stop offset="0.5152" stop-color="#6B0F8E"/>
<stop offset="0.7522" stop-color="#600D8A"/>
<stop offset="1" stop-color="#5C0D88"/>
</radialGradient>
<radialGradient id="paint21_radial_39_4" cx="0" cy="0" r="1" gradientUnits="userSpaceOnUse" gradientTransform="translate(49.9778 313.221) scale(18.6842 18.6842)">
<stop stop-color="#A115A4"/>
<stop offset="0.0541" stop-color="#9914A1"/>
<stop offset="0.2826" stop-color="#7F1196"/>
<stop offset="0.5152" stop-color="#6B0F8E"/>
<stop offset="0.7522" stop-color="#600D8A"/>
<stop offset="1" stop-color="#5C0D88"/>
</radialGradient>
<radialGradient id="paint22_radial_39_4" cx="0" cy="0" r="1" gradientUnits="userSpaceOnUse" gradientTransform="translate(23.2331 328.873) scale(35.0662 35.0662)">
<stop stop-color="#A115A4"/>
<stop offset="0.0541" stop-color="#9914A1"/>
<stop offset="0.2826" stop-color="#7F1196"/>
<stop offset="0.5152" stop-color="#6B0F8E"/>
<stop offset="0.7522" stop-color="#600D8A"/>
<stop offset="1" stop-color="#5C0D88"/>
</radialGradient>
<radialGradient id="paint23_radial_39_4" cx="0" cy="0" r="1" gradientUnits="userSpaceOnUse" gradientTransform="translate(72.0222 328.741) scale(25.9751 25.9752)">
<stop stop-color="#A115A4"/>
<stop offset="0.0541" stop-color="#9914A1"/>
<stop offset="0.2826" stop-color="#7F1196"/>
<stop offset="0.5152" stop-color="#6B0F8E"/>
<stop offset="0.7522" stop-color="#600D8A"/>
<stop offset="1" stop-color="#5C0D88"/>
</radialGradient>
<radialGradient id="paint24_radial_39_4" cx="0" cy="0" r="1" gradientUnits="userSpaceOnUse" gradientTransform="translate(68.7449 310.636) scale(17.7584 17.7583)">
<stop stop-color="#A115A4"/>
<stop offset="0.0541" stop-color="#9914A1"/>
<stop offset="0.2826" stop-color="#7F1196"/>
<stop offset="0.5152" stop-color="#6B0F8E"/>
<stop offset="0.7522" stop-color="#600D8A"/>
<stop offset="1" stop-color="#5C0D88"/>
</radialGradient>
<radialGradient id="paint25_radial_39_4" cx="0" cy="0" r="1" gradientUnits="userSpaceOnUse" gradientTransform="translate(83.2078 294.246) scale(23.2569 23.2569)">
<stop stop-color="#A115A4"/>
<stop offset="0.0541" stop-color="#9914A1"/>
<stop offset="0.2826" stop-color="#7F1196"/>
<stop offset="0.5152" stop-color="#6B0F8E"/>
<stop offset="0.7522" stop-color="#600D8A"/>
<stop offset="1" stop-color="#5C0D88"/>
</radialGradient>
<radialGradient id="paint26_radial_39_4" cx="0" cy="0" r="1" gradientUnits="userSpaceOnUse" gradientTransform="translate(135.376 197.584) scale(43.5288 43.5288)">
<stop stop-color="#594A81"/>
<stop offset="0.2346" stop-color="#56487D"/>
<stop offset="0.4741" stop-color="#4E4071"/>
<stop offset="0.7158" stop-color="#40345C"/>
<stop offset="0.9577" stop-color="#2C2340"/>
<stop offset="1" stop-color="#281F3A"/>
</radialGradient>
<radialGradient id="paint27_radial_39_4" cx="0" cy="0" r="1" gradientUnits="userSpaceOnUse" gradientTransform="translate(136 166.353) scale(126.189 126.189)">
<stop stop-color="#FDEEF1"/>
<stop offset="0.3267" stop-color="#FDEAEE"/>
<stop offset="0.6601" stop-color="#FDDEE4"/>
<stop offset="0.9956" stop-color="#FDC9D3"/>
<stop offset="1" stop-color="#FDC9D3"/>
</radialGradient>
<radialGradient id="paint28_radial_39_4" cx="0" cy="0" r="1" gradientUnits="userSpaceOnUse" gradientTransform="translate(95.2532 234.521) scale(5.60464 5.60463)">
<stop stop-color="#FDEEF1"/>
<stop offset="0.3267" stop-color="#FDEAEE"/>
<stop offset="0.6601" stop-color="#FDDEE4"/>
<stop offset="0.9956" stop-color="#FDC9D3"/>
<stop offset="1" stop-color="#FDC9D3"/>
</radialGradient>
<radialGradient id="paint29_radial_39_4" cx="0" cy="0" r="1" gradientUnits="userSpaceOnUse" gradientTransform="translate(176.747 234.521) rotate(180) scale(5.60464 5.60463)">
<stop stop-color="#FDEEF1"/>
<stop offset="0.3267" stop-color="#FDEAEE"/>
<stop offset="0.6601" stop-color="#FDDEE4"/>
<stop offset="0.9956" stop-color="#FDC9D3"/>
<stop offset="1" stop-color="#FDC9D3"/>
</radialGradient>
<radialGradient id="paint30_radial_39_4" cx="0" cy="0" r="1" gradientUnits="userSpaceOnUse" gradientTransform="translate(135.176 201.496) scale(38.245 38.245)">
<stop stop-color="#A115A4"/>
<stop offset="0.0541" stop-color="#9914A1"/>
<stop offset="0.2826" stop-color="#7F1196"/>
<stop offset="0.5152" stop-color="#6B0F8E"/>
<stop offset="0.7522" stop-color="#600D8A"/>
<stop offset="1" stop-color="#5C0D88"/>
</radialGradient>
<radialGradient id="paint31_radial_39_4" cx="0" cy="0" r="1" gradientUnits="userSpaceOnUse" gradientTransform="translate(135.176 200.266) scale(25.277 25.277)">
<stop stop-color="#A115A4"/>
<stop offset="0.0541" stop-color="#9914A1"/>
<stop offset="0.2826" stop-color="#7F1196"/>
<stop offset="0.5152" stop-color="#6B0F8E"/>
<stop offset="0.7522" stop-color="#600D8A"/>
<stop offset="1" stop-color="#5C0D88"/>
</radialGradient>
<radialGradient id="paint32_radial_39_4" cx="0" cy="0" r="1" gradientUnits="userSpaceOnUse" gradientTransform="translate(137.07 203.65) scale(34.6439 34.6439)">
<stop stop-color="#A115A4"/>
<stop offset="0.0541" stop-color="#9914A1"/>
<stop offset="0.2826" stop-color="#7F1196"/>
<stop offset="0.5152" stop-color="#6B0F8E"/>
<stop offset="0.7522" stop-color="#600D8A"/>
<stop offset="1" stop-color="#5C0D88"/>
</radialGradient>
<radialGradient id="paint33_radial_39_4" cx="0" cy="0" r="1" gradientUnits="userSpaceOnUse" gradientTransform="translate(137.07 205.782) scale(34.644 34.644)">
<stop stop-color="#A115A4"/>
<stop offset="0.0541" stop-color="#9914A1"/>
<stop offset="0.2826" stop-color="#7F1196"/>
<stop offset="0.5152" stop-color="#6B0F8E"/>
<stop offset="0.7522" stop-color="#600D8A"/>
<stop offset="1" stop-color="#5C0D88"/>
</radialGradient>
<radialGradient id="paint34_radial_39_4" cx="0" cy="0" r="1" gradientUnits="userSpaceOnUse" gradientTransform="translate(137.07 204.797) scale(34.644 34.644)">
<stop stop-color="#FC956F"/>
<stop offset="1" stop-color="#BE2D58"/>
</radialGradient>
<radialGradient id="paint35_radial_39_4" cx="0" cy="0" r="1" gradientUnits="userSpaceOnUse" gradientTransform="translate(136.804 210.654) scale(28.6391 28.6391)">
<stop stop-color="#FC956F"/>
<stop offset="1" stop-color="#BE2D58"/>
</radialGradient>
<radialGradient id="paint36_radial_39_4" cx="0" cy="0" r="1" gradientUnits="userSpaceOnUse" gradientTransform="translate(143.638 205.19) scale(13.4643 13.4642)">
<stop stop-color="#FC956F"/>
<stop offset="1" stop-color="#BE2D58" stop-opacity="0"/>
</radialGradient>
<radialGradient id="paint37_radial_39_4" cx="0" cy="0" r="1" gradientUnits="userSpaceOnUse" gradientTransform="translate(95.6682 15.1637) scale(53.4919 53.4919)">
<stop stop-color="#A115A4"/>
<stop offset="0.2278" stop-color="#9714A0"/>
<stop offset="0.6113" stop-color="#7D1195"/>
<stop offset="1" stop-color="#5C0D88"/>
</radialGradient>
<radialGradient id="paint38_radial_39_4" cx="0" cy="0" r="1" gradientUnits="userSpaceOnUse" gradientTransform="translate(85.0085 12.6167) scale(10.7377 10.7377)">
<stop stop-color="#FC956F"/>
<stop offset="1" stop-color="#BE2D58"/>
</radialGradient>
<radialGradient id="paint39_radial_39_4" cx="0" cy="0" r="1" gradientUnits="userSpaceOnUse" gradientTransform="translate(105.614 46.4712) scale(89.2326 89.2326)">
<stop stop-color="#594A81"/>
<stop offset="0.2346" stop-color="#56487D"/>
<stop offset="0.4741" stop-color="#4E4071"/>
<stop offset="0.7158" stop-color="#40345C"/>
<stop offset="0.9577" stop-color="#2C2340"/>
<stop offset="1" stop-color="#281F3A"/>
</radialGradient>
<radialGradient id="paint40_radial_39_4" cx="0" cy="0" r="1" gradientUnits="userSpaceOnUse" gradientTransform="translate(92.6857 43.1269) scale(87.5184 87.5184)">
<stop stop-color="#FC956F"/>
<stop offset="1" stop-color="#BE2D58"/>
</radialGradient>
<radialGradient id="paint41_radial_39_4" cx="0" cy="0" r="1" gradientUnits="userSpaceOnUse" gradientTransform="translate(118.748 96.636) scale(47.0251 47.0251)">
<stop stop-color="#FDEEF1"/>
<stop offset="0.3267" stop-color="#FDEAEE"/>
<stop offset="0.6601" stop-color="#FDDEE4"/>
<stop offset="0.9956" stop-color="#FDC9D3"/>
<stop offset="1" stop-color="#FDC9D3"/>
</radialGradient>
<radialGradient id="paint42_radial_39_4" cx="0" cy="0" r="1" gradientUnits="userSpaceOnUse" gradientTransform="translate(176.33 15.1637) rotate(180) scale(53.4919 53.4919)">
<stop stop-color="#A115A4"/>
<stop offset="0.2278" stop-color="#9714A0"/>
<stop offset="0.6113" stop-color="#7D1195"/>
<stop offset="1" stop-color="#5C0D88"/>
</radialGradient>
<radialGradient id="paint43_radial_39_4" cx="0" cy="0" r="1" gradientUnits="userSpaceOnUse" gradientTransform="translate(186.99 12.6167) rotate(180) scale(10.7377)">
<stop stop-color="#FC956F"/>
<stop offset="1" stop-color="#BE2D58"/>
</radialGradient>
<radialGradient id="paint44_radial_39_4" cx="0" cy="0" r="1" gradientUnits="userSpaceOnUse" gradientTransform="translate(166.383 46.4712) rotate(180) scale(89.2326 89.2326)">
<stop stop-color="#594A81"/>
<stop offset="0.2346" stop-color="#56487D"/>
<stop offset="0.4741" stop-color="#4E4071"/>
<stop offset="0.7158" stop-color="#40345C"/>
<stop offset="0.9577" stop-color="#2C2340"/>
<stop offset="1" stop-color="#281F3A"/>
</radialGradient>
<radialGradient id="paint45_radial_39_4" cx="0" cy="0" r="1" gradientUnits="userSpaceOnUse" gradientTransform="translate(179.313 43.1269) rotate(180) scale(87.5184 87.5184)">
<stop stop-color="#FC956F"/>
<stop offset="1" stop-color="#BE2D58"/>
</radialGradient>
<radialGradient id="paint46_radial_39_4" cx="0" cy="0" r="1" gradientUnits="userSpaceOnUse" gradientTransform="translate(153.249 96.636) rotate(180) scale(47.0251 47.0251)">
<stop stop-color="#FDEEF1"/>
<stop offset="0.3267" stop-color="#FDEAEE"/>
<stop offset="0.6601" stop-color="#FDDEE4"/>
<stop offset="0.9956" stop-color="#FDC9D3"/>
<stop offset="1" stop-color="#FDC9D3"/>
</radialGradient>
<radialGradient id="paint47_radial_39_4" cx="0" cy="0" r="1" gradientUnits="userSpaceOnUse" gradientTransform="translate(135.791 -4.54556) scale(169.541 169.541)">
<stop stop-color="#FDEEF1"/>
<stop offset="0.3267" stop-color="#FDEAEE"/>
<stop offset="0.6601" stop-color="#FDDEE4"/>
<stop offset="0.9956" stop-color="#FDC9D3"/>
<stop offset="1" stop-color="#FDC9D3"/>
</radialGradient>
<radialGradient id="paint48_radial_39_4" cx="0" cy="0" r="1" gradientUnits="userSpaceOnUse" gradientTransform="translate(111.308 133.104) scale(14.2279 14.2279)">
<stop stop-color="#FDEEF1"/>
<stop offset="0.3267" stop-color="#FDEAEE"/>
<stop offset="0.6601" stop-color="#FDDEE4"/>
<stop offset="0.9956" stop-color="#FDC9D3"/>
<stop offset="1" stop-color="#FDC9D3"/>
</radialGradient>
<radialGradient id="paint49_radial_39_4" cx="0" cy="0" r="1" gradientUnits="userSpaceOnUse" gradientTransform="translate(160.69 133.104) rotate(180) scale(14.2279 14.2279)">
<stop stop-color="#FDEEF1"/>
<stop offset="0.3267" stop-color="#FDEAEE"/>
<stop offset="0.6601" stop-color="#FDDEE4"/>
<stop offset="0.9956" stop-color="#FDC9D3"/>
<stop offset="1" stop-color="#FDC9D3"/>
</radialGradient>
<radialGradient id="paint50_radial_39_4" cx="0" cy="0" r="1" gradientUnits="userSpaceOnUse" gradientTransform="translate(137.676 96.2346) scale(151.875 151.875)">
<stop stop-color="#FDEEF1"/>
<stop offset="0.4378" stop-color="#FDECEF"/>
<stop offset="0.6832" stop-color="#FDE4E8"/>
<stop offset="0.8805" stop-color="#FDD6DD"/>
<stop offset="1" stop-color="#FDC9D3"/>
</radialGradient>
<radialGradient id="paint51_radial_39_4" cx="0" cy="0" r="1" gradientUnits="userSpaceOnUse" gradientTransform="translate(136.786 148.198) scale(139.876)">
<stop stop-color="#A115A4"/>
<stop offset="0.0541" stop-color="#9914A1"/>
<stop offset="0.2826" stop-color="#7F1196"/>
<stop offset="0.5152" stop-color="#6B0F8E"/>
<stop offset="0.7522" stop-color="#600D8A"/>
<stop offset="1" stop-color="#5C0D88"/>
</radialGradient>
<radialGradient id="paint52_radial_39_4" cx="0" cy="0" r="1" gradientUnits="userSpaceOnUse" gradientTransform="translate(165.927 61.5753) scale(78.5421 78.5421)">
<stop stop-color="#FC956F"/>
<stop offset="1" stop-color="#BE2D58"/>
</radialGradient>
<radialGradient id="paint53_radial_39_4" cx="0" cy="0" r="1" gradientUnits="userSpaceOnUse" gradientTransform="translate(106.072 61.5753) rotate(180) scale(78.5419 78.5419)">
<stop stop-color="#FC956F"/>
<stop offset="1" stop-color="#BE2D58"/>
</radialGradient>
</defs>
</svg>
